<mxfile host="app.diagrams.net" modified="2022-04-27T08:30:02.084Z" agent="5.0 (Macintosh; Intel Mac OS X 10_15_7) AppleWebKit/537.36 (KHTML, like Gecko) Chrome/100.0.4896.88 Safari/537.36" etag="U46AMLkKrqYbK1q3jzHP" version="17.4.5" type="github">
  <diagram id="5KlOoEswQC4chdtOE5YC" name="Page-1">
    <mxGraphModel dx="1675" dy="491" grid="0" gridSize="10" guides="1" tooltips="1" connect="1" arrows="1" fold="1" page="1" pageScale="1" pageWidth="827" pageHeight="1169" math="0" shadow="0">
      <root>
        <mxCell id="0" />
        <mxCell id="1" parent="0" />
        <mxCell id="PMLSl6hNcCpb2a3d2smo-4" value="" style="edgeStyle=orthogonalEdgeStyle;rounded=0;orthogonalLoop=1;jettySize=auto;html=1;" edge="1" parent="1" source="PMLSl6hNcCpb2a3d2smo-1" target="PMLSl6hNcCpb2a3d2smo-2">
          <mxGeometry relative="1" as="geometry" />
        </mxCell>
        <mxCell id="PMLSl6hNcCpb2a3d2smo-1" value="query，entity_list" style="text;html=1;strokeColor=none;fillColor=none;align=center;verticalAlign=middle;whiteSpace=wrap;rounded=0;" vertex="1" parent="1">
          <mxGeometry x="272" y="11" width="133" height="30" as="geometry" />
        </mxCell>
        <mxCell id="PMLSl6hNcCpb2a3d2smo-2" value="" style="rounded=0;whiteSpace=wrap;html=1;fontFamily=Helvetica;fontSize=12;fontColor=default;align=center;strokeColor=default;fillColor=default;" vertex="1" parent="1">
          <mxGeometry x="-65" y="72" width="807" height="587" as="geometry" />
        </mxCell>
        <mxCell id="PMLSl6hNcCpb2a3d2smo-5" value="kbqa_pipeline" style="text;html=1;strokeColor=none;fillColor=none;align=center;verticalAlign=middle;whiteSpace=wrap;rounded=0;" vertex="1" parent="1">
          <mxGeometry x="-47.25" y="72" width="60" height="30" as="geometry" />
        </mxCell>
        <mxCell id="PMLSl6hNcCpb2a3d2smo-9" value="" style="edgeStyle=orthogonalEdgeStyle;rounded=0;orthogonalLoop=1;jettySize=auto;html=1;exitX=0;exitY=0.5;exitDx=0;exitDy=0;" edge="1" parent="1" source="PMLSl6hNcCpb2a3d2smo-140" target="PMLSl6hNcCpb2a3d2smo-8">
          <mxGeometry relative="1" as="geometry">
            <mxPoint x="440" y="899" as="sourcePoint" />
          </mxGeometry>
        </mxCell>
        <mxCell id="PMLSl6hNcCpb2a3d2smo-8" value="answer" style="text;html=1;strokeColor=none;fillColor=none;align=center;verticalAlign=middle;whiteSpace=wrap;rounded=0;" vertex="1" parent="1">
          <mxGeometry x="149" y="708.25" width="60" height="30" as="geometry" />
        </mxCell>
        <mxCell id="PMLSl6hNcCpb2a3d2smo-20" style="edgeStyle=orthogonalEdgeStyle;rounded=0;orthogonalLoop=1;jettySize=auto;html=1;exitX=1;exitY=0.5;exitDx=0;exitDy=0;entryX=0;entryY=0.5;entryDx=0;entryDy=0;" edge="1" parent="1" source="PMLSl6hNcCpb2a3d2smo-10" target="PMLSl6hNcCpb2a3d2smo-19">
          <mxGeometry relative="1" as="geometry">
            <mxPoint x="242" y="186" as="targetPoint" />
            <Array as="points" />
          </mxGeometry>
        </mxCell>
        <mxCell id="PMLSl6hNcCpb2a3d2smo-10" value="" style="rounded=0;whiteSpace=wrap;html=1;dashed=1;" vertex="1" parent="1">
          <mxGeometry x="30.75" y="121.5" width="189" height="103" as="geometry" />
        </mxCell>
        <mxCell id="PMLSl6hNcCpb2a3d2smo-11" value="query预处理" style="text;html=1;strokeColor=none;fillColor=none;align=center;verticalAlign=middle;whiteSpace=wrap;rounded=0;" vertex="1" parent="1">
          <mxGeometry x="30.75" y="116" width="72" height="30" as="geometry" />
        </mxCell>
        <mxCell id="PMLSl6hNcCpb2a3d2smo-16" style="edgeStyle=orthogonalEdgeStyle;rounded=0;orthogonalLoop=1;jettySize=auto;html=1;exitX=0;exitY=0.5;exitDx=0;exitDy=0;entryX=0;entryY=0.5;entryDx=0;entryDy=0;" edge="1" parent="1" source="PMLSl6hNcCpb2a3d2smo-12" target="PMLSl6hNcCpb2a3d2smo-13">
          <mxGeometry relative="1" as="geometry">
            <mxPoint x="58" y="196" as="targetPoint" />
            <Array as="points">
              <mxPoint x="37" y="153" />
              <mxPoint x="37" y="197" />
              <mxPoint x="49" y="197" />
            </Array>
          </mxGeometry>
        </mxCell>
        <mxCell id="PMLSl6hNcCpb2a3d2smo-33" style="edgeStyle=orthogonalEdgeStyle;rounded=0;orthogonalLoop=1;jettySize=auto;html=1;exitX=1;exitY=0.5;exitDx=0;exitDy=0;entryX=0;entryY=0.5;entryDx=0;entryDy=0;" edge="1" parent="1" source="PMLSl6hNcCpb2a3d2smo-12" target="PMLSl6hNcCpb2a3d2smo-30">
          <mxGeometry relative="1" as="geometry" />
        </mxCell>
        <mxCell id="PMLSl6hNcCpb2a3d2smo-34" value="是" style="edgeLabel;html=1;align=center;verticalAlign=middle;resizable=0;points=[];" vertex="1" connectable="0" parent="PMLSl6hNcCpb2a3d2smo-33">
          <mxGeometry x="-0.1024" y="-2" relative="1" as="geometry">
            <mxPoint x="-4" y="-4" as="offset" />
          </mxGeometry>
        </mxCell>
        <mxCell id="PMLSl6hNcCpb2a3d2smo-12" value="黑名单过滤" style="rounded=1;whiteSpace=wrap;html=1;" vertex="1" parent="1">
          <mxGeometry x="49.75" y="142" width="66" height="21" as="geometry" />
        </mxCell>
        <mxCell id="PMLSl6hNcCpb2a3d2smo-18" value="" style="edgeStyle=orthogonalEdgeStyle;rounded=0;orthogonalLoop=1;jettySize=auto;html=1;" edge="1" parent="1" source="PMLSl6hNcCpb2a3d2smo-13" target="PMLSl6hNcCpb2a3d2smo-17">
          <mxGeometry relative="1" as="geometry" />
        </mxCell>
        <mxCell id="PMLSl6hNcCpb2a3d2smo-13" value="借助ner类别补充query信息" style="rounded=1;whiteSpace=wrap;html=1;" vertex="1" parent="1">
          <mxGeometry x="51.75" y="180" width="84" height="33" as="geometry" />
        </mxCell>
        <mxCell id="PMLSl6hNcCpb2a3d2smo-17" value="同义词替换" style="whiteSpace=wrap;html=1;rounded=1;" vertex="1" parent="1">
          <mxGeometry x="154.25" y="183.25" width="65" height="24.5" as="geometry" />
        </mxCell>
        <mxCell id="PMLSl6hNcCpb2a3d2smo-25" style="edgeStyle=orthogonalEdgeStyle;rounded=0;orthogonalLoop=1;jettySize=auto;html=1;exitX=1;exitY=0.5;exitDx=0;exitDy=0;entryX=0;entryY=0.5;entryDx=0;entryDy=0;" edge="1" parent="1" source="PMLSl6hNcCpb2a3d2smo-19" target="PMLSl6hNcCpb2a3d2smo-22">
          <mxGeometry relative="1" as="geometry">
            <Array as="points">
              <mxPoint x="369" y="186" />
              <mxPoint x="381" y="186" />
              <mxPoint x="381" y="124" />
            </Array>
          </mxGeometry>
        </mxCell>
        <mxCell id="PMLSl6hNcCpb2a3d2smo-26" style="edgeStyle=orthogonalEdgeStyle;rounded=0;orthogonalLoop=1;jettySize=auto;html=1;exitX=1;exitY=0.5;exitDx=0;exitDy=0;entryX=0;entryY=0.5;entryDx=0;entryDy=0;" edge="1" parent="1" source="PMLSl6hNcCpb2a3d2smo-19" target="PMLSl6hNcCpb2a3d2smo-23">
          <mxGeometry relative="1" as="geometry">
            <Array as="points">
              <mxPoint x="369" y="186" />
              <mxPoint x="380" y="186" />
              <mxPoint x="380" y="207" />
            </Array>
          </mxGeometry>
        </mxCell>
        <mxCell id="PMLSl6hNcCpb2a3d2smo-19" value="问法分类&lt;br&gt;normal/contrast/&lt;br&gt;judgement/enumerate" style="rounded=0;whiteSpace=wrap;html=1;" vertex="1" parent="1">
          <mxGeometry x="248.75" y="143" width="120" height="60" as="geometry" />
        </mxCell>
        <mxCell id="PMLSl6hNcCpb2a3d2smo-35" style="edgeStyle=orthogonalEdgeStyle;rounded=0;orthogonalLoop=1;jettySize=auto;html=1;entryX=0;entryY=0.5;entryDx=0;entryDy=0;" edge="1" parent="1" source="PMLSl6hNcCpb2a3d2smo-22" target="PMLSl6hNcCpb2a3d2smo-27">
          <mxGeometry relative="1" as="geometry">
            <Array as="points">
              <mxPoint x="509" y="137" />
              <mxPoint x="509" y="182" />
            </Array>
          </mxGeometry>
        </mxCell>
        <mxCell id="PMLSl6hNcCpb2a3d2smo-22" value="取主mention&lt;br&gt;人物&amp;gt;地点 or&lt;br&gt;第一个mention" style="rounded=0;whiteSpace=wrap;html=1;" vertex="1" parent="1">
          <mxGeometry x="397" y="98" width="102" height="52" as="geometry" />
        </mxCell>
        <mxCell id="PMLSl6hNcCpb2a3d2smo-36" style="edgeStyle=orthogonalEdgeStyle;rounded=0;orthogonalLoop=1;jettySize=auto;html=1;exitX=1;exitY=0.5;exitDx=0;exitDy=0;entryX=0;entryY=0.5;entryDx=0;entryDy=0;" edge="1" parent="1" source="PMLSl6hNcCpb2a3d2smo-23" target="PMLSl6hNcCpb2a3d2smo-27">
          <mxGeometry relative="1" as="geometry">
            <Array as="points">
              <mxPoint x="501" y="220" />
              <mxPoint x="510" y="220" />
              <mxPoint x="510" y="182" />
              <mxPoint x="527" y="182" />
            </Array>
          </mxGeometry>
        </mxCell>
        <mxCell id="PMLSl6hNcCpb2a3d2smo-23" value="取前两个mention" style="rounded=0;whiteSpace=wrap;html=1;" vertex="1" parent="1">
          <mxGeometry x="399" y="184" width="102" height="46.5" as="geometry" />
        </mxCell>
        <mxCell id="PMLSl6hNcCpb2a3d2smo-38" style="edgeStyle=orthogonalEdgeStyle;rounded=0;orthogonalLoop=1;jettySize=auto;html=1;exitX=0.5;exitY=0;exitDx=0;exitDy=0;entryX=0.5;entryY=1;entryDx=0;entryDy=0;" edge="1" parent="1" source="PMLSl6hNcCpb2a3d2smo-27" target="PMLSl6hNcCpb2a3d2smo-37">
          <mxGeometry relative="1" as="geometry" />
        </mxCell>
        <mxCell id="PMLSl6hNcCpb2a3d2smo-39" value="&amp;lt;0.2" style="edgeLabel;html=1;align=center;verticalAlign=middle;resizable=0;points=[];" vertex="1" connectable="0" parent="PMLSl6hNcCpb2a3d2smo-38">
          <mxGeometry x="-0.2063" y="-2" relative="1" as="geometry">
            <mxPoint x="1" as="offset" />
          </mxGeometry>
        </mxCell>
        <mxCell id="PMLSl6hNcCpb2a3d2smo-27" value="检查提取出来的mention与query的重合度" style="rounded=0;whiteSpace=wrap;html=1;" vertex="1" parent="1">
          <mxGeometry x="527" y="158" width="102" height="46.5" as="geometry" />
        </mxCell>
        <mxCell id="PMLSl6hNcCpb2a3d2smo-30" value="没结果" style="text;html=1;strokeColor=none;fillColor=none;align=center;verticalAlign=middle;whiteSpace=wrap;rounded=0;" vertex="1" parent="1">
          <mxGeometry x="158" y="139" width="50" height="27" as="geometry" />
        </mxCell>
        <mxCell id="PMLSl6hNcCpb2a3d2smo-37" value="没结果" style="text;html=1;strokeColor=none;fillColor=none;align=center;verticalAlign=middle;whiteSpace=wrap;rounded=0;" vertex="1" parent="1">
          <mxGeometry x="551" y="101" width="53" height="17" as="geometry" />
        </mxCell>
        <mxCell id="PMLSl6hNcCpb2a3d2smo-40" value="" style="rounded=0;whiteSpace=wrap;html=1;dashed=1;" vertex="1" parent="1">
          <mxGeometry x="31.75" y="245" width="618.25" height="192" as="geometry" />
        </mxCell>
        <mxCell id="PMLSl6hNcCpb2a3d2smo-41" value="实体链接(消歧)" style="text;html=1;strokeColor=none;fillColor=none;align=center;verticalAlign=middle;whiteSpace=wrap;rounded=0;" vertex="1" parent="1">
          <mxGeometry x="30.75" y="237.5" width="88" height="30" as="geometry" />
        </mxCell>
        <mxCell id="PMLSl6hNcCpb2a3d2smo-71" style="edgeStyle=orthogonalEdgeStyle;rounded=0;orthogonalLoop=1;jettySize=auto;html=1;exitX=0;exitY=0.5;exitDx=0;exitDy=0;entryX=1;entryY=0.5;entryDx=0;entryDy=0;" edge="1" parent="1" source="PMLSl6hNcCpb2a3d2smo-44" target="PMLSl6hNcCpb2a3d2smo-45">
          <mxGeometry relative="1" as="geometry" />
        </mxCell>
        <mxCell id="PMLSl6hNcCpb2a3d2smo-44" value="query" style="text;html=1;strokeColor=none;fillColor=none;align=center;verticalAlign=middle;whiteSpace=wrap;rounded=0;" vertex="1" parent="1">
          <mxGeometry x="669" y="307" width="53" height="27" as="geometry" />
        </mxCell>
        <mxCell id="PMLSl6hNcCpb2a3d2smo-55" style="edgeStyle=orthogonalEdgeStyle;rounded=0;orthogonalLoop=1;jettySize=auto;html=1;exitX=0.5;exitY=1;exitDx=0;exitDy=0;entryX=0.5;entryY=0;entryDx=0;entryDy=0;" edge="1" parent="1" source="PMLSl6hNcCpb2a3d2smo-45" target="PMLSl6hNcCpb2a3d2smo-53">
          <mxGeometry relative="1" as="geometry" />
        </mxCell>
        <mxCell id="PMLSl6hNcCpb2a3d2smo-56" value="否" style="edgeLabel;html=1;align=center;verticalAlign=middle;resizable=0;points=[];" vertex="1" connectable="0" parent="PMLSl6hNcCpb2a3d2smo-55">
          <mxGeometry x="-0.3407" y="-1" relative="1" as="geometry">
            <mxPoint y="1" as="offset" />
          </mxGeometry>
        </mxCell>
        <mxCell id="PMLSl6hNcCpb2a3d2smo-73" style="edgeStyle=orthogonalEdgeStyle;rounded=0;orthogonalLoop=1;jettySize=auto;html=1;exitX=0;exitY=0.5;exitDx=0;exitDy=0;entryX=0.5;entryY=0;entryDx=0;entryDy=0;" edge="1" parent="1" source="PMLSl6hNcCpb2a3d2smo-45" target="PMLSl6hNcCpb2a3d2smo-57">
          <mxGeometry relative="1" as="geometry" />
        </mxCell>
        <mxCell id="PMLSl6hNcCpb2a3d2smo-75" value="是" style="edgeLabel;html=1;align=center;verticalAlign=middle;resizable=0;points=[];" vertex="1" connectable="0" parent="PMLSl6hNcCpb2a3d2smo-73">
          <mxGeometry x="-0.3499" y="-1" relative="1" as="geometry">
            <mxPoint as="offset" />
          </mxGeometry>
        </mxCell>
        <mxCell id="PMLSl6hNcCpb2a3d2smo-45" value="query=mention" style="rhombus;whiteSpace=wrap;html=1;" vertex="1" parent="1">
          <mxGeometry x="528.87" y="304" width="98" height="31.5" as="geometry" />
        </mxCell>
        <mxCell id="PMLSl6hNcCpb2a3d2smo-76" style="edgeStyle=orthogonalEdgeStyle;rounded=0;orthogonalLoop=1;jettySize=auto;html=1;exitX=0;exitY=0.5;exitDx=0;exitDy=0;entryX=1;entryY=0.5;entryDx=0;entryDy=0;" edge="1" parent="1" source="PMLSl6hNcCpb2a3d2smo-53" target="PMLSl6hNcCpb2a3d2smo-59">
          <mxGeometry relative="1" as="geometry">
            <Array as="points">
              <mxPoint x="532" y="387" />
              <mxPoint x="457" y="387" />
              <mxPoint x="457" y="356" />
            </Array>
          </mxGeometry>
        </mxCell>
        <mxCell id="PMLSl6hNcCpb2a3d2smo-53" value="输入mention选取第一个entity_id" style="rounded=1;whiteSpace=wrap;html=1;" vertex="1" parent="1">
          <mxGeometry x="531.62" y="368.25" width="92.5" height="32" as="geometry" />
        </mxCell>
        <mxCell id="PMLSl6hNcCpb2a3d2smo-74" style="edgeStyle=orthogonalEdgeStyle;rounded=0;orthogonalLoop=1;jettySize=auto;html=1;exitX=0;exitY=0.5;exitDx=0;exitDy=0;entryX=1;entryY=0.5;entryDx=0;entryDy=0;" edge="1" parent="1" source="PMLSl6hNcCpb2a3d2smo-57" target="PMLSl6hNcCpb2a3d2smo-59">
          <mxGeometry relative="1" as="geometry" />
        </mxCell>
        <mxCell id="PMLSl6hNcCpb2a3d2smo-57" value="选取query的entity_id" style="rounded=1;whiteSpace=wrap;html=1;" vertex="1" parent="1">
          <mxGeometry x="462" y="340.25" width="66" height="31" as="geometry" />
        </mxCell>
        <mxCell id="PMLSl6hNcCpb2a3d2smo-64" style="edgeStyle=orthogonalEdgeStyle;rounded=0;orthogonalLoop=1;jettySize=auto;html=1;exitX=0.5;exitY=0;exitDx=0;exitDy=0;entryX=1;entryY=0.5;entryDx=0;entryDy=0;" edge="1" parent="1" source="PMLSl6hNcCpb2a3d2smo-59" target="PMLSl6hNcCpb2a3d2smo-62">
          <mxGeometry relative="1" as="geometry" />
        </mxCell>
        <mxCell id="PMLSl6hNcCpb2a3d2smo-65" value="没结果" style="edgeLabel;html=1;align=center;verticalAlign=middle;resizable=0;points=[];" vertex="1" connectable="0" parent="PMLSl6hNcCpb2a3d2smo-64">
          <mxGeometry x="0.2727" y="-1" relative="1" as="geometry">
            <mxPoint x="12" y="1" as="offset" />
          </mxGeometry>
        </mxCell>
        <mxCell id="PMLSl6hNcCpb2a3d2smo-67" style="edgeStyle=orthogonalEdgeStyle;rounded=0;orthogonalLoop=1;jettySize=auto;html=1;exitX=0.5;exitY=1;exitDx=0;exitDy=0;entryX=1;entryY=0.5;entryDx=0;entryDy=0;" edge="1" parent="1" source="PMLSl6hNcCpb2a3d2smo-59" target="PMLSl6hNcCpb2a3d2smo-66">
          <mxGeometry relative="1" as="geometry">
            <mxPoint x="962" y="228" as="targetPoint" />
          </mxGeometry>
        </mxCell>
        <mxCell id="PMLSl6hNcCpb2a3d2smo-68" value="有结果" style="edgeLabel;html=1;align=center;verticalAlign=middle;resizable=0;points=[];" vertex="1" connectable="0" parent="PMLSl6hNcCpb2a3d2smo-67">
          <mxGeometry x="-0.5745" y="-1" relative="1" as="geometry">
            <mxPoint x="-3" y="1" as="offset" />
          </mxGeometry>
        </mxCell>
        <mxCell id="PMLSl6hNcCpb2a3d2smo-59" value="搜索这个entity的单向边" style="rounded=1;whiteSpace=wrap;html=1;" vertex="1" parent="1">
          <mxGeometry x="361.5" y="333.25" width="78.5" height="45" as="geometry" />
        </mxCell>
        <mxCell id="PMLSl6hNcCpb2a3d2smo-80" style="edgeStyle=orthogonalEdgeStyle;rounded=0;orthogonalLoop=1;jettySize=auto;html=1;exitX=0;exitY=0.5;exitDx=0;exitDy=0;entryX=1;entryY=0.5;entryDx=0;entryDy=0;" edge="1" parent="1" source="PMLSl6hNcCpb2a3d2smo-62" target="PMLSl6hNcCpb2a3d2smo-77">
          <mxGeometry relative="1" as="geometry" />
        </mxCell>
        <mxCell id="PMLSl6hNcCpb2a3d2smo-62" value="这个entity是别名，搜索双向边找到实体" style="rounded=1;whiteSpace=wrap;html=1;" vertex="1" parent="1">
          <mxGeometry x="269" y="288.25" width="85" height="45" as="geometry" />
        </mxCell>
        <mxCell id="PMLSl6hNcCpb2a3d2smo-88" style="edgeStyle=orthogonalEdgeStyle;rounded=0;orthogonalLoop=1;jettySize=auto;html=1;exitX=0;exitY=0.5;exitDx=0;exitDy=0;entryX=1;entryY=0.5;entryDx=0;entryDy=0;" edge="1" parent="1" source="PMLSl6hNcCpb2a3d2smo-66" target="PMLSl6hNcCpb2a3d2smo-86">
          <mxGeometry relative="1" as="geometry" />
        </mxCell>
        <mxCell id="PMLSl6hNcCpb2a3d2smo-66" value="通过relation为歧义的找到所有歧义实体" style="rounded=1;whiteSpace=wrap;html=1;" vertex="1" parent="1">
          <mxGeometry x="271" y="383.25" width="85" height="45" as="geometry" />
        </mxCell>
        <mxCell id="PMLSl6hNcCpb2a3d2smo-81" style="edgeStyle=orthogonalEdgeStyle;rounded=0;orthogonalLoop=1;jettySize=auto;html=1;exitX=0.5;exitY=0;exitDx=0;exitDy=0;entryX=0.5;entryY=1;entryDx=0;entryDy=0;" edge="1" parent="1" source="PMLSl6hNcCpb2a3d2smo-77" target="PMLSl6hNcCpb2a3d2smo-78">
          <mxGeometry relative="1" as="geometry" />
        </mxCell>
        <mxCell id="PMLSl6hNcCpb2a3d2smo-82" value="没找到" style="edgeLabel;html=1;align=center;verticalAlign=middle;resizable=0;points=[];" vertex="1" connectable="0" parent="PMLSl6hNcCpb2a3d2smo-81">
          <mxGeometry x="0.2202" y="-3" relative="1" as="geometry">
            <mxPoint x="2" y="5" as="offset" />
          </mxGeometry>
        </mxCell>
        <mxCell id="PMLSl6hNcCpb2a3d2smo-98" style="edgeStyle=orthogonalEdgeStyle;rounded=0;orthogonalLoop=1;jettySize=auto;html=1;exitX=0;exitY=0.5;exitDx=0;exitDy=0;entryX=0.5;entryY=0;entryDx=0;entryDy=0;" edge="1" parent="1" source="PMLSl6hNcCpb2a3d2smo-77" target="PMLSl6hNcCpb2a3d2smo-90">
          <mxGeometry relative="1" as="geometry" />
        </mxCell>
        <mxCell id="PMLSl6hNcCpb2a3d2smo-100" value="找到" style="edgeLabel;html=1;align=center;verticalAlign=middle;resizable=0;points=[];" vertex="1" connectable="0" parent="PMLSl6hNcCpb2a3d2smo-98">
          <mxGeometry x="-0.7557" y="1" relative="1" as="geometry">
            <mxPoint as="offset" />
          </mxGeometry>
        </mxCell>
        <mxCell id="PMLSl6hNcCpb2a3d2smo-77" value="双向第一个边的尾节点id作为entity_id再次找单向边" style="rounded=1;whiteSpace=wrap;html=1;" vertex="1" parent="1">
          <mxGeometry x="90" y="288.25" width="109" height="45" as="geometry" />
        </mxCell>
        <mxCell id="PMLSl6hNcCpb2a3d2smo-78" value="没结果" style="text;html=1;strokeColor=none;fillColor=none;align=center;verticalAlign=middle;whiteSpace=wrap;rounded=0;" vertex="1" parent="1">
          <mxGeometry x="118.75" y="243.5" width="53" height="17" as="geometry" />
        </mxCell>
        <mxCell id="PMLSl6hNcCpb2a3d2smo-83" style="edgeStyle=orthogonalEdgeStyle;rounded=0;orthogonalLoop=1;jettySize=auto;html=1;exitX=0.5;exitY=1;exitDx=0;exitDy=0;" edge="1" parent="1" source="PMLSl6hNcCpb2a3d2smo-27" target="PMLSl6hNcCpb2a3d2smo-45">
          <mxGeometry relative="1" as="geometry" />
        </mxCell>
        <mxCell id="PMLSl6hNcCpb2a3d2smo-89" style="edgeStyle=orthogonalEdgeStyle;rounded=0;orthogonalLoop=1;jettySize=auto;html=1;exitX=0;exitY=0.5;exitDx=0;exitDy=0;entryX=1;entryY=0.5;entryDx=0;entryDy=0;" edge="1" parent="1" source="PMLSl6hNcCpb2a3d2smo-86" target="PMLSl6hNcCpb2a3d2smo-87">
          <mxGeometry relative="1" as="geometry" />
        </mxCell>
        <mxCell id="PMLSl6hNcCpb2a3d2smo-86" value="歧义实体hot_level排序，选择前topk个" style="rounded=1;whiteSpace=wrap;html=1;" vertex="1" parent="1">
          <mxGeometry x="165" y="383.25" width="87" height="45" as="geometry" />
        </mxCell>
        <mxCell id="PMLSl6hNcCpb2a3d2smo-99" style="edgeStyle=orthogonalEdgeStyle;rounded=0;orthogonalLoop=1;jettySize=auto;html=1;exitX=0;exitY=0.5;exitDx=0;exitDy=0;entryX=0.5;entryY=0;entryDx=0;entryDy=0;" edge="1" parent="1" source="PMLSl6hNcCpb2a3d2smo-87" target="PMLSl6hNcCpb2a3d2smo-90">
          <mxGeometry relative="1" as="geometry" />
        </mxCell>
        <mxCell id="PMLSl6hNcCpb2a3d2smo-87" value="歧义实体结点描述与query计算相似度+其他分数排序" style="rounded=1;whiteSpace=wrap;html=1;" vertex="1" parent="1">
          <mxGeometry x="42" y="383.25" width="104.25" height="45" as="geometry" />
        </mxCell>
        <mxCell id="PMLSl6hNcCpb2a3d2smo-90" value="top1实体+其单向边（对比类query传两个）" style="text;html=1;strokeColor=none;fillColor=none;align=center;verticalAlign=middle;whiteSpace=wrap;rounded=0;" vertex="1" parent="1">
          <mxGeometry x="-63" y="460" width="88" height="37" as="geometry" />
        </mxCell>
        <mxCell id="PMLSl6hNcCpb2a3d2smo-97" value="" style="rounded=0;whiteSpace=wrap;html=1;dashed=1;" vertex="1" parent="1">
          <mxGeometry x="30.75" y="450" width="618.25" height="200" as="geometry" />
        </mxCell>
        <mxCell id="PMLSl6hNcCpb2a3d2smo-101" value="路径排序+答案生成" style="text;html=1;strokeColor=none;fillColor=none;align=center;verticalAlign=middle;whiteSpace=wrap;rounded=0;" vertex="1" parent="1">
          <mxGeometry x="26" y="448" width="121" height="23" as="geometry" />
        </mxCell>
        <mxCell id="PMLSl6hNcCpb2a3d2smo-106" style="edgeStyle=orthogonalEdgeStyle;rounded=0;orthogonalLoop=1;jettySize=auto;html=1;exitX=0.5;exitY=0;exitDx=0;exitDy=0;" edge="1" parent="1" source="PMLSl6hNcCpb2a3d2smo-102" target="PMLSl6hNcCpb2a3d2smo-105">
          <mxGeometry relative="1" as="geometry" />
        </mxCell>
        <mxCell id="PMLSl6hNcCpb2a3d2smo-107" value="枚举类" style="edgeLabel;html=1;align=center;verticalAlign=middle;resizable=0;points=[];" vertex="1" connectable="0" parent="PMLSl6hNcCpb2a3d2smo-106">
          <mxGeometry x="0.3289" relative="1" as="geometry">
            <mxPoint as="offset" />
          </mxGeometry>
        </mxCell>
        <mxCell id="PMLSl6hNcCpb2a3d2smo-109" style="edgeStyle=orthogonalEdgeStyle;rounded=0;orthogonalLoop=1;jettySize=auto;html=1;exitX=1;exitY=0.5;exitDx=0;exitDy=0;entryX=0;entryY=0.5;entryDx=0;entryDy=0;" edge="1" parent="1" source="PMLSl6hNcCpb2a3d2smo-102" target="PMLSl6hNcCpb2a3d2smo-108">
          <mxGeometry relative="1" as="geometry" />
        </mxCell>
        <mxCell id="PMLSl6hNcCpb2a3d2smo-110" value="比较类" style="edgeLabel;html=1;align=center;verticalAlign=middle;resizable=0;points=[];" vertex="1" connectable="0" parent="PMLSl6hNcCpb2a3d2smo-109">
          <mxGeometry x="-0.1596" y="1" relative="1" as="geometry">
            <mxPoint as="offset" />
          </mxGeometry>
        </mxCell>
        <mxCell id="PMLSl6hNcCpb2a3d2smo-112" style="edgeStyle=orthogonalEdgeStyle;rounded=0;orthogonalLoop=1;jettySize=auto;html=1;exitX=0.5;exitY=1;exitDx=0;exitDy=0;entryX=0.5;entryY=0;entryDx=0;entryDy=0;" edge="1" parent="1" source="PMLSl6hNcCpb2a3d2smo-102" target="PMLSl6hNcCpb2a3d2smo-111">
          <mxGeometry relative="1" as="geometry" />
        </mxCell>
        <mxCell id="PMLSl6hNcCpb2a3d2smo-113" value="一般/判别类" style="edgeLabel;html=1;align=center;verticalAlign=middle;resizable=0;points=[];" vertex="1" connectable="0" parent="PMLSl6hNcCpb2a3d2smo-112">
          <mxGeometry x="-0.2131" y="-1" relative="1" as="geometry">
            <mxPoint as="offset" />
          </mxGeometry>
        </mxCell>
        <mxCell id="PMLSl6hNcCpb2a3d2smo-102" value="query_type" style="rhombus;whiteSpace=wrap;html=1;" vertex="1" parent="1">
          <mxGeometry x="48.13" y="541" width="98" height="31.5" as="geometry" />
        </mxCell>
        <mxCell id="PMLSl6hNcCpb2a3d2smo-103" style="edgeStyle=orthogonalEdgeStyle;rounded=0;orthogonalLoop=1;jettySize=auto;html=1;exitX=0.5;exitY=1;exitDx=0;exitDy=0;entryX=0;entryY=0.5;entryDx=0;entryDy=0;" edge="1" parent="1" source="PMLSl6hNcCpb2a3d2smo-90" target="PMLSl6hNcCpb2a3d2smo-102">
          <mxGeometry relative="1" as="geometry" />
        </mxCell>
        <mxCell id="PMLSl6hNcCpb2a3d2smo-105" value="枚举作品类边的end_node" style="rounded=1;whiteSpace=wrap;html=1;" vertex="1" parent="1">
          <mxGeometry x="57.95" y="475" width="78.37" height="36" as="geometry" />
        </mxCell>
        <mxCell id="PMLSl6hNcCpb2a3d2smo-117" style="edgeStyle=orthogonalEdgeStyle;rounded=0;orthogonalLoop=1;jettySize=auto;html=1;exitX=0.5;exitY=0;exitDx=0;exitDy=0;" edge="1" parent="1" source="PMLSl6hNcCpb2a3d2smo-108" target="PMLSl6hNcCpb2a3d2smo-114">
          <mxGeometry relative="1" as="geometry" />
        </mxCell>
        <mxCell id="PMLSl6hNcCpb2a3d2smo-108" value="通过配置得到要比较的relation" style="rounded=1;whiteSpace=wrap;html=1;" vertex="1" parent="1">
          <mxGeometry x="200.38" y="538.75" width="87.62" height="36.25" as="geometry" />
        </mxCell>
        <mxCell id="PMLSl6hNcCpb2a3d2smo-122" style="edgeStyle=orthogonalEdgeStyle;rounded=0;orthogonalLoop=1;jettySize=auto;html=1;exitX=1;exitY=0.5;exitDx=0;exitDy=0;entryX=0;entryY=0.5;entryDx=0;entryDy=0;" edge="1" parent="1" source="PMLSl6hNcCpb2a3d2smo-111" target="PMLSl6hNcCpb2a3d2smo-121">
          <mxGeometry relative="1" as="geometry" />
        </mxCell>
        <mxCell id="PMLSl6hNcCpb2a3d2smo-111" value="实体+relation/end_node得到sentence" style="rounded=1;whiteSpace=wrap;html=1;" vertex="1" parent="1">
          <mxGeometry x="46.95" y="597" width="102.05" height="45" as="geometry" />
        </mxCell>
        <mxCell id="PMLSl6hNcCpb2a3d2smo-118" style="edgeStyle=orthogonalEdgeStyle;rounded=0;orthogonalLoop=1;jettySize=auto;html=1;exitX=1;exitY=0.5;exitDx=0;exitDy=0;entryX=0;entryY=0.5;entryDx=0;entryDy=0;" edge="1" parent="1" source="PMLSl6hNcCpb2a3d2smo-114" target="PMLSl6hNcCpb2a3d2smo-116">
          <mxGeometry relative="1" as="geometry" />
        </mxCell>
        <mxCell id="PMLSl6hNcCpb2a3d2smo-114" value="根据relation直接找到end_node" style="rounded=1;whiteSpace=wrap;html=1;" vertex="1" parent="1">
          <mxGeometry x="196.88" y="478" width="94.62" height="36.25" as="geometry" />
        </mxCell>
        <mxCell id="PMLSl6hNcCpb2a3d2smo-116" value="post_process输出答案" style="rounded=1;whiteSpace=wrap;html=1;" vertex="1" parent="1">
          <mxGeometry x="327" y="478" width="81" height="36" as="geometry" />
        </mxCell>
        <mxCell id="PMLSl6hNcCpb2a3d2smo-125" style="edgeStyle=orthogonalEdgeStyle;rounded=0;orthogonalLoop=1;jettySize=auto;html=1;exitX=1;exitY=0.5;exitDx=0;exitDy=0;" edge="1" parent="1" source="PMLSl6hNcCpb2a3d2smo-121" target="PMLSl6hNcCpb2a3d2smo-123">
          <mxGeometry relative="1" as="geometry" />
        </mxCell>
        <mxCell id="PMLSl6hNcCpb2a3d2smo-126" value="判别类" style="edgeLabel;html=1;align=center;verticalAlign=middle;resizable=0;points=[];" vertex="1" connectable="0" parent="PMLSl6hNcCpb2a3d2smo-125">
          <mxGeometry x="-0.2572" y="1" relative="1" as="geometry">
            <mxPoint x="2" as="offset" />
          </mxGeometry>
        </mxCell>
        <mxCell id="PMLSl6hNcCpb2a3d2smo-129" style="edgeStyle=orthogonalEdgeStyle;rounded=0;orthogonalLoop=1;jettySize=auto;html=1;exitX=0.5;exitY=0;exitDx=0;exitDy=0;entryX=0;entryY=0.5;entryDx=0;entryDy=0;" edge="1" parent="1" source="PMLSl6hNcCpb2a3d2smo-121" target="PMLSl6hNcCpb2a3d2smo-124">
          <mxGeometry relative="1" as="geometry">
            <mxPoint x="503" y="472" as="targetPoint" />
            <Array as="points">
              <mxPoint x="319" y="604" />
              <mxPoint x="319" y="521" />
              <mxPoint x="442" y="521" />
              <mxPoint x="442" y="474" />
            </Array>
          </mxGeometry>
        </mxCell>
        <mxCell id="PMLSl6hNcCpb2a3d2smo-130" style="edgeStyle=orthogonalEdgeStyle;rounded=0;orthogonalLoop=1;jettySize=auto;html=1;exitX=0.5;exitY=0;exitDx=0;exitDy=0;entryX=0;entryY=0.5;entryDx=0;entryDy=0;" edge="1" parent="1" source="PMLSl6hNcCpb2a3d2smo-121" target="PMLSl6hNcCpb2a3d2smo-127">
          <mxGeometry relative="1" as="geometry">
            <Array as="points">
              <mxPoint x="319" y="604" />
              <mxPoint x="319" y="573" />
            </Array>
          </mxGeometry>
        </mxCell>
        <mxCell id="PMLSl6hNcCpb2a3d2smo-135" value="一般类" style="edgeLabel;html=1;align=center;verticalAlign=middle;resizable=0;points=[];" vertex="1" connectable="0" parent="PMLSl6hNcCpb2a3d2smo-130">
          <mxGeometry x="-0.1901" y="-1" relative="1" as="geometry">
            <mxPoint x="-11" y="-17" as="offset" />
          </mxGeometry>
        </mxCell>
        <mxCell id="PMLSl6hNcCpb2a3d2smo-131" style="edgeStyle=orthogonalEdgeStyle;rounded=0;orthogonalLoop=1;jettySize=auto;html=1;exitX=0.5;exitY=0;exitDx=0;exitDy=0;entryX=0;entryY=0.5;entryDx=0;entryDy=0;" edge="1" parent="1" source="PMLSl6hNcCpb2a3d2smo-121" target="PMLSl6hNcCpb2a3d2smo-128">
          <mxGeometry relative="1" as="geometry">
            <Array as="points">
              <mxPoint x="238" y="584" />
              <mxPoint x="458" y="584" />
              <mxPoint x="458" y="623" />
            </Array>
          </mxGeometry>
        </mxCell>
        <mxCell id="PMLSl6hNcCpb2a3d2smo-139" style="edgeStyle=orthogonalEdgeStyle;rounded=0;orthogonalLoop=1;jettySize=auto;html=1;exitX=0.5;exitY=0;exitDx=0;exitDy=0;entryX=0;entryY=0.5;entryDx=0;entryDy=0;" edge="1" parent="1" source="PMLSl6hNcCpb2a3d2smo-121" target="PMLSl6hNcCpb2a3d2smo-136">
          <mxGeometry relative="1" as="geometry">
            <Array as="points">
              <mxPoint x="319" y="604" />
              <mxPoint x="319" y="522" />
            </Array>
          </mxGeometry>
        </mxCell>
        <mxCell id="PMLSl6hNcCpb2a3d2smo-121" value="query_type" style="rhombus;whiteSpace=wrap;html=1;" vertex="1" parent="1">
          <mxGeometry x="188.88" y="604" width="98" height="31.5" as="geometry" />
        </mxCell>
        <mxCell id="PMLSl6hNcCpb2a3d2smo-133" style="edgeStyle=orthogonalEdgeStyle;rounded=0;orthogonalLoop=1;jettySize=auto;html=1;exitX=1;exitY=0.5;exitDx=0;exitDy=0;entryX=0;entryY=0.5;entryDx=0;entryDy=0;" edge="1" parent="1" source="PMLSl6hNcCpb2a3d2smo-123" target="PMLSl6hNcCpb2a3d2smo-127">
          <mxGeometry relative="1" as="geometry" />
        </mxCell>
        <mxCell id="PMLSl6hNcCpb2a3d2smo-134" style="edgeStyle=orthogonalEdgeStyle;rounded=0;orthogonalLoop=1;jettySize=auto;html=1;exitX=1;exitY=0.5;exitDx=0;exitDy=0;entryX=0;entryY=0.5;entryDx=0;entryDy=0;" edge="1" parent="1" source="PMLSl6hNcCpb2a3d2smo-123" target="PMLSl6hNcCpb2a3d2smo-124">
          <mxGeometry relative="1" as="geometry" />
        </mxCell>
        <mxCell id="PMLSl6hNcCpb2a3d2smo-137" style="edgeStyle=orthogonalEdgeStyle;rounded=0;orthogonalLoop=1;jettySize=auto;html=1;exitX=1;exitY=0.5;exitDx=0;exitDy=0;entryX=0;entryY=0.5;entryDx=0;entryDy=0;" edge="1" parent="1" source="PMLSl6hNcCpb2a3d2smo-123" target="PMLSl6hNcCpb2a3d2smo-127">
          <mxGeometry relative="1" as="geometry" />
        </mxCell>
        <mxCell id="PMLSl6hNcCpb2a3d2smo-138" style="edgeStyle=orthogonalEdgeStyle;rounded=0;orthogonalLoop=1;jettySize=auto;html=1;exitX=1;exitY=0.5;exitDx=0;exitDy=0;entryX=0;entryY=0.5;entryDx=0;entryDy=0;" edge="1" parent="1" source="PMLSl6hNcCpb2a3d2smo-123" target="PMLSl6hNcCpb2a3d2smo-136">
          <mxGeometry relative="1" as="geometry" />
        </mxCell>
        <mxCell id="PMLSl6hNcCpb2a3d2smo-123" value="提取出的两个槽位和entity拼接形成两个input_query" style="rounded=1;whiteSpace=wrap;html=1;" vertex="1" parent="1">
          <mxGeometry x="341" y="597.75" width="106" height="44.25" as="geometry" />
        </mxCell>
        <mxCell id="PMLSl6hNcCpb2a3d2smo-124" value="jaccard计算query和sentence的字面相似度" style="rounded=1;whiteSpace=wrap;html=1;" vertex="1" parent="1">
          <mxGeometry x="507.46" y="454" width="132.54" height="38" as="geometry" />
        </mxCell>
        <mxCell id="PMLSl6hNcCpb2a3d2smo-127" value="sentence_bert计算query和sentence的相似度" style="rounded=1;whiteSpace=wrap;html=1;" vertex="1" parent="1">
          <mxGeometry x="507.46" y="554" width="133.54" height="37.37" as="geometry" />
        </mxCell>
        <mxCell id="PMLSl6hNcCpb2a3d2smo-141" style="edgeStyle=orthogonalEdgeStyle;rounded=0;orthogonalLoop=1;jettySize=auto;html=1;exitX=0.5;exitY=1;exitDx=0;exitDy=0;entryX=1;entryY=0.5;entryDx=0;entryDy=0;" edge="1" parent="1" source="PMLSl6hNcCpb2a3d2smo-128" target="PMLSl6hNcCpb2a3d2smo-140">
          <mxGeometry relative="1" as="geometry" />
        </mxCell>
        <mxCell id="PMLSl6hNcCpb2a3d2smo-128" value="交互式模型计算query和sentence的相似度" style="rounded=1;whiteSpace=wrap;html=1;" vertex="1" parent="1">
          <mxGeometry x="506.29" y="604" width="135.88" height="38" as="geometry" />
        </mxCell>
        <mxCell id="PMLSl6hNcCpb2a3d2smo-136" value="计算query和sentence的substring相似度" style="rounded=1;whiteSpace=wrap;html=1;" vertex="1" parent="1">
          <mxGeometry x="508.46000000000004" y="503" width="132.54" height="38" as="geometry" />
        </mxCell>
        <mxCell id="PMLSl6hNcCpb2a3d2smo-140" value="综合score选取最终路径" style="rounded=0;whiteSpace=wrap;html=1;" vertex="1" parent="1">
          <mxGeometry x="262.5" y="700" width="102" height="46.5" as="geometry" />
        </mxCell>
      </root>
    </mxGraphModel>
  </diagram>
</mxfile>
